<?xml version="1.0" encoding="UTF-8" standalone="no"?>
<svg
   xmlns:dc="http://purl.org/dc/elements/1.1/"
   xmlns:cc="http://creativecommons.org/ns#"
   xmlns:rdf="http://www.w3.org/1999/02/22-rdf-syntax-ns#"
   xmlns:svg="http://www.w3.org/2000/svg"
   xmlns="http://www.w3.org/2000/svg"
   xmlns:sodipodi="http://sodipodi.sourceforge.net/DTD/sodipodi-0.dtd"
   xmlns:inkscape="http://www.inkscape.org/namespaces/inkscape"
   version="1.1"
   id="svg2"
   xml:space="preserve"
   width="967.05334"
   height="134.8"
   viewBox="0 0 967.05334 134.8"
   sodipodi:docname="Mass_General_Brigham_horiz_rgb_reversed[1].eps"><metadata
     id="metadata8"><rdf:RDF><cc:Work
         rdf:about=""><dc:format>image/svg+xml</dc:format><dc:type
           rdf:resource="http://purl.org/dc/dcmitype/StillImage" /></cc:Work></rdf:RDF></metadata><defs
     id="defs6" /><sodipodi:namedview
     pagecolor="#ffffff"
     bordercolor="#666666"
     borderopacity="1"
     objecttolerance="10"
     gridtolerance="10"
     guidetolerance="10"
     inkscape:pageopacity="0"
     inkscape:pageshadow="2"
     inkscape:window-width="640"
     inkscape:window-height="480"
     id="namedview4" /><g
     id="g10"
     inkscape:groupmode="layer"
     inkscape:label="ink_ext_XXXXXX"
     transform="matrix(1.3333333,0,0,-1.3333333,0,134.8)"><g
       id="g12"
       transform="scale(0.1)"><path
         d="m 1075.98,632.254 144,-344.039 140.39,344.039 h 100.8 V 181.531 h -79.19 v 352.426 l -133.2,-329.648 h -70.8 L 1044.79,533.957 V 181.531 h -70.802 v 450.723 h 101.992"
         style="fill:#ffffff;fill-opacity:1;fill-rule:nonzero;stroke:none"
         id="path14" /><path
         d="m 1647.19,235.473 c 23.41,0 45,10.789 55.81,31.172 10.79,20.375 10.79,44.347 10.79,57.539 v 7.187 h -18 c -34.79,0 -94.79,0 -94.79,-51.543 0,-26.375 15.6,-44.355 46.19,-44.355 z m -95.39,266.121 c 0,0 40.8,14.386 105.6,14.386 49.19,0 93.59,-8.394 116.39,-40.761 18,-25.172 18,-58.735 18,-88.703 V 273.832 c 0,-13.785 0,-38.359 28.2,-38.359 9,0 17.4,2.402 17.4,2.402 v -55.148 c 0,0 -18,-4.793 -42,-4.793 -42,0 -68.4,14.382 -73.2,58.738 -12,-38.359 -49.19,-59.938 -97.19,-59.938 -64.8,0 -105.6,39.559 -105.6,98.899 0,71.324 58.8,106.09 163.2,106.09 19.19,0 31.19,-1.203 31.19,-1.203 0,27.57 0,40.757 -9.6,55.14 -9.6,13.785 -25.79,21.578 -58.19,21.578 -47.4,0 -89.4,-16.781 -89.4,-16.781 h -4.8 v 61.137"
         style="fill:#ffffff;fill-opacity:1;fill-rule:nonzero;stroke:none"
         id="path16" /><path
         d="m 2091.78,440.457 h -4.8 c 0,0 -41.99,16.781 -79.19,16.781 -33.6,0 -49.2,-13.183 -49.2,-29.968 0,-50.946 148.8,-35.957 148.8,-149.84 0,-70.125 -55.8,-100.696 -135,-100.696 -57,0 -92.99,15.582 -92.99,15.582 v 63.536 h 4.8 c 0,0 50.39,-20.379 92.39,-20.379 36,0 51.6,14.382 51.6,33.562 0,59.344 -148.79,41.957 -148.79,149.242 0,59.938 46.79,97.703 130.19,97.703 46.8,0 82.19,-11.992 82.19,-11.992 v -63.531"
         style="fill:#ffffff;fill-opacity:1;fill-rule:nonzero;stroke:none"
         id="path18" /><path
         d="m 2367.78,440.457 h -4.8 c 0,0 -42,16.781 -79.19,16.781 -33.6,0 -49.2,-13.183 -49.2,-29.968 0,-50.946 148.79,-35.957 148.79,-149.84 0,-70.125 -55.79,-100.696 -134.99,-100.696 -57,0 -93,15.582 -93,15.582 v 63.536 h 4.8 c 0,0 50.4,-20.379 92.4,-20.379 36,0 51.6,14.382 51.6,33.562 0,59.344 -148.8,41.957 -148.8,149.242 0,59.938 46.8,97.703 130.2,97.703 46.8,0 82.19,-11.992 82.19,-11.992 v -63.531"
         style="fill:#ffffff;fill-opacity:1;fill-rule:nonzero;stroke:none"
         id="path20" /><path
         d="M 2929.96,420.082 V 199.516 c 0,0 -58.8,-23.977 -138.59,-23.977 -138.59,0 -233.39,71.926 -233.39,227.754 0,159.434 99.59,233.758 243.58,233.758 66.01,0 114,-15.582 114,-15.582 v -63.535 h -4.8 c 0,0 -46.79,19.179 -106.79,19.179 -99.6,0 -160.79,-52.746 -160.79,-169.023 0,-116.274 61.19,-172.617 148.79,-172.617 33.6,0 58.79,8.39 58.79,8.39 v 116.278 h -80.39 v 59.941 h 159.59"
         style="fill:#ffffff;fill-opacity:1;fill-rule:nonzero;stroke:none"
         id="path22" /><path
         d="m 3204.76,378.121 c 0,55.145 -16.8,86.313 -62.4,86.313 -46.2,0 -64.79,-32.965 -69.59,-86.313 z m 61.2,-187 c 0,0 -45,-14.387 -104.4,-14.387 -63.6,0 -100.8,16.786 -125.99,40.758 -30,28.77 -44.4,71.926 -44.4,126.465 0,107.285 55.19,175.617 153.59,175.617 54,0 94.8,-20.383 117.6,-57.539 22.8,-37.16 22.8,-86.308 22.8,-137.851 h -212.39 c 0,-56.344 32.39,-89.907 94.79,-89.907 45.6,0 93.59,17.981 93.59,17.981 h 4.81 v -61.137"
         style="fill:#ffffff;fill-opacity:1;fill-rule:nonzero;stroke:none"
         id="path24" /><path
         d="m 3412.96,511.184 14.4,-56.34 c 10.8,38.355 40.8,63.527 97.8,63.527 50.99,0 79.79,-20.375 95.39,-43.152 19.2,-27.571 19.2,-59.934 19.2,-99.492 V 181.531 h -79.2 v 195.395 c 0,19.179 0,38.359 -10.79,53.941 -10.8,15.582 -26.4,23.977 -52.2,23.977 -59.4,0 -66.6,-45.555 -66.6,-71.926 V 181.531 h -79.19 v 329.653 h 61.19"
         style="fill:#ffffff;fill-opacity:1;fill-rule:nonzero;stroke:none"
         id="path26" /><path
         d="m 3913.95,378.121 c 0,55.145 -16.8,86.313 -62.4,86.313 -46.2,0 -64.79,-32.965 -69.59,-86.313 z m 61.2,-187 c 0,0 -45,-14.387 -104.4,-14.387 -63.6,0 -100.8,16.786 -125.99,40.758 -30,28.77 -44.4,71.926 -44.4,126.465 0,107.285 55.19,175.617 153.59,175.617 54,0 94.8,-20.383 117.6,-57.539 22.8,-37.16 22.8,-86.308 22.8,-137.851 h -212.39 c 0,-56.344 32.39,-89.907 94.79,-89.907 45.6,0 93.59,17.981 93.59,17.981 h 4.81 v -61.137"
         style="fill:#ffffff;fill-opacity:1;fill-rule:nonzero;stroke:none"
         id="path28" /><path
         d="m 4245.74,440.457 c 0,0 -16.19,3.598 -34.79,3.598 -70.8,0 -70.8,-52.149 -70.8,-77.918 V 181.531 h -79.2 v 329.653 h 60 l 15.6,-64.735 c 12,55.145 52.8,68.328 100.8,68.328 h 8.39 v -74.32"
         style="fill:#ffffff;fill-opacity:1;fill-rule:nonzero;stroke:none"
         id="path30" /><path
         d="m 4392.74,235.473 c 23.41,0 45,10.789 55.8,31.172 10.8,20.375 10.8,44.347 10.8,57.539 v 7.187 h -18 c -34.79,0 -94.79,0 -94.79,-51.543 0,-26.375 15.6,-44.355 46.19,-44.355 z m -95.39,266.121 c 0,0 40.8,14.386 105.59,14.386 49.2,0 93.6,-8.394 116.4,-40.761 18,-25.172 18,-58.735 18,-88.703 V 273.832 c 0,-13.785 0,-38.359 28.19,-38.359 9,0 17.41,2.402 17.41,2.402 v -55.148 c 0,0 -18.01,-4.793 -42,-4.793 -42,0 -68.4,14.382 -73.2,58.738 -12,-38.359 -49.2,-59.938 -97.2,-59.938 -64.8,0 -105.59,39.559 -105.59,98.899 0,71.324 58.8,106.09 163.19,106.09 19.2,0 31.2,-1.203 31.2,-1.203 0,27.57 0,40.757 -9.6,55.14 -9.6,13.785 -25.8,21.578 -58.19,21.578 -47.41,0 -89.4,-16.781 -89.4,-16.781 h -4.8 v 61.137"
         style="fill:#ffffff;fill-opacity:1;fill-rule:nonzero;stroke:none"
         id="path32" /><path
         d="M 4710.74,649.035 V 181.531 h -77.99 v 467.504 h 77.99"
         style="fill:#ffffff;fill-opacity:1;fill-rule:nonzero;stroke:none"
         id="path34" /><path
         d="m 5011.93,239.07 h 64.79 c 20.4,0 43.8,0 67.2,13.188 21,11.984 32.4,31.164 32.4,59.933 0,28.77 -11.4,47.95 -32.4,59.942 -23.4,13.183 -46.8,13.183 -67.2,13.183 h -64.79 z m 0,207.379 h 55.19 c 18,0 36.6,0 54,9.59 16.8,9.59 28.8,26.375 28.8,53.945 0,27.567 -12,45.551 -28.8,55.141 -17.4,9.59 -36,9.59 -54,9.59 h -55.19 z m 65.99,185.805 c 34.8,0 73.2,0 105.6,-19.18 27.6,-16.179 49.2,-44.351 49.2,-91.703 0,-89.902 -79.2,-98.898 -79.2,-98.898 0,0 105.59,-4.793 105.59,-111.481 0,-51.547 -23.99,-83.91 -56.39,-104.289 -39.6,-25.172 -85.2,-25.172 -122.4,-25.172 h -147.59 v 450.723 h 145.19"
         style="fill:#ffffff;fill-opacity:1;fill-rule:nonzero;stroke:none"
         id="path36" /><path
         d="m 5504.52,440.457 c 0,0 -16.2,3.598 -34.8,3.598 -70.8,0 -70.8,-52.149 -70.8,-77.918 V 181.531 h -79.19 v 329.653 h 59.99 l 15.6,-64.735 c 12.01,55.145 52.8,68.328 100.8,68.328 h 8.4 v -74.32"
         style="fill:#ffffff;fill-opacity:1;fill-rule:nonzero;stroke:none"
         id="path38" /><path
         d="M 5629.92,511.184 V 181.531 h -77.99 v 329.653 z m 8.4,93.496 c 0,-26.367 -19.2,-46.746 -47.4,-46.746 -28.2,0 -47.4,20.379 -47.4,46.746 0,26.379 19.2,46.754 47.4,46.754 28.2,0 47.4,-20.375 47.4,-46.754"
         style="fill:#ffffff;fill-opacity:1;fill-rule:nonzero;stroke:none"
         id="path40" /><path
         d="m 5895.11,412.883 c 0,33.566 -20.4,51.551 -55.2,51.551 -34.8,0 -55.2,-17.985 -55.2,-51.551 0,-33.563 20.4,-51.543 55.2,-51.543 34.8,0 55.2,17.98 55.2,51.543 z M 5772.72,193.52 c 0,0 -22.8,-11.989 -22.8,-39.563 0,-28.769 25.19,-41.953 82.79,-41.953 63.6,0 97.2,15.586 97.2,46.75 0,33.562 -40.8,34.766 -60,34.766 z m 67.19,112.679 c -16.2,0 -31.2,1.196 -45,4.196 -7.79,-4.196 -17.39,-11.989 -17.39,-26.973 0,-25.172 26.39,-25.172 44.4,-25.172 h 56.39 c 40.8,0 129.6,0 129.6,-88.707 0,-71.9219 -57.6,-110.2813 -178.2,-110.2813 -105.59,0 -151.79,29.3711 -151.79,79.7153 0,58.136 61.2,65.929 64.2,66.531 -1.8,0.597 -42.6,14.383 -42.6,56.34 0,42.554 40.8,56.34 61.8,60.535 -36,17.98 -57,49.75 -57,90.5 0,64.738 52.8,106.691 135.59,106.691 40.8,0 74.4,-10.191 97.8,-28.769 15,41.953 49.8,41.953 70.2,41.953 h 7.19 v -64.727 c 0,0 -11.99,2.391 -26.39,2.391 -15.6,0 -23.4,-2.992 -27.6,-4.793 9,-14.981 14.4,-32.965 14.4,-52.746 0,-64.727 -52.8,-106.684 -135.6,-106.684"
         style="fill:#ffffff;fill-opacity:1;fill-rule:nonzero;stroke:none"
         id="path42" /><path
         d="M 6144.11,649.035 V 459.637 c 10.8,34.761 37.2,58.734 93.6,58.734 51.59,0 80.39,-20.375 95.99,-43.152 19.2,-27.571 19.2,-59.934 19.2,-99.492 V 181.531 h -79.2 v 195.395 c 0,19.179 0,38.359 -10.79,53.941 -10.8,15.582 -26.4,23.977 -52.2,23.977 -59.4,0 -66.6,-45.555 -66.6,-71.926 V 181.531 h -77.99 v 467.504 h 77.99"
         style="fill:#ffffff;fill-opacity:1;fill-rule:nonzero;stroke:none"
         id="path44" /><path
         d="m 6535.3,235.473 c 23.4,0 45,10.789 55.8,31.172 10.8,20.375 10.8,44.347 10.8,57.539 v 7.187 h -18 c -34.8,0 -94.8,0 -94.8,-51.543 0,-26.375 15.6,-44.355 46.2,-44.355 z m -95.4,266.121 c 0,0 40.81,14.386 105.6,14.386 49.2,0 93.6,-8.394 116.4,-40.761 18,-25.172 18,-58.735 18,-88.703 V 273.832 c 0,-13.785 0,-38.359 28.19,-38.359 9,0 17.41,2.402 17.41,2.402 v -55.148 c 0,0 -18.01,-4.793 -42,-4.793 -42,0 -68.4,14.382 -73.2,58.738 -12,-38.359 -49.2,-59.938 -97.2,-59.938 -64.8,0 -105.59,39.559 -105.59,98.899 0,71.324 58.8,106.09 163.19,106.09 19.2,0 31.2,-1.203 31.2,-1.203 0,27.57 0,40.757 -9.6,55.14 -9.6,13.785 -25.8,21.578 -58.2,21.578 -47.4,0 -89.4,-16.781 -89.4,-16.781 h -4.8 v 61.137"
         style="fill:#ffffff;fill-opacity:1;fill-rule:nonzero;stroke:none"
         id="path46" /><path
         d="m 6836.5,511.184 14.4,-56.34 c 9.6,37.16 37.19,63.527 95.39,63.527 57,0 85.8,-25.172 100.2,-65.926 15.6,44.356 45.6,65.926 95.99,65.926 51.6,0 79.2,-22.773 92.4,-43.152 18,-27.571 18,-59.934 18,-99.492 V 181.531 h -79.2 v 195.395 c 0,19.179 0,38.359 -9.6,53.941 -8.39,13.188 -22.8,23.977 -49.19,23.977 -54,0 -61.2,-45.555 -61.2,-71.926 V 181.531 h -79.2 v 195.395 c 0,19.179 0,38.359 -9.6,53.941 -8.4,13.188 -22.8,23.977 -49.19,23.977 -54,0 -61.21,-45.555 -61.21,-71.926 V 181.531 h -79.19 v 329.653 h 61.2"
         style="fill:#ffffff;fill-opacity:1;fill-rule:nonzero;stroke:none"
         id="path48" /><path
         d="M 94.5156,632.273 H 0.00390625 V 326.695 H 94.5156 v 305.578"
         style="fill:#009ca6;fill-opacity:1;fill-rule:nonzero;stroke:none"
         id="path50" /><path
         d="M 203.016,632.273 V 326.695 h 94.511 v 305.578 h -94.511"
         style="fill:#009ca6;fill-opacity:1;fill-rule:nonzero;stroke:none"
         id="path52" /><path
         d="M 406.031,632.273 V 326.695 h 94.512 v 305.578 h -94.512"
         style="fill:#009ca6;fill-opacity:1;fill-rule:nonzero;stroke:none"
         id="path54" /><path
         d="M 0.00390625,689.504 H 703.563 V 775.57 H 0.00390625 v -86.066"
         style="fill:#009ca6;fill-opacity:1;fill-rule:nonzero;stroke:none"
         id="path56" /><path
         d="M 351.781,1011.03 0.00390625,893.77 V 804.887 L 351.781,922.148 703.563,804.887 v 88.883 l -351.782,117.26"
         style="fill:#009ca6;fill-opacity:1;fill-rule:nonzero;stroke:none"
         id="path58" /><path
         d="M 703.563,333.488 C 701.691,328.32 667.59,269.465 442.98,269.465 H 260.578 C 30.1992,267.699 4.38672,237.719 -0.00390625,234.523 V 146.578 C 4.38672,149.773 30.1992,179.754 260.578,181.523 H 442.98 c 224.61,0 258.711,58.852 260.583,64.024 v 87.941"
         style="fill:#009ca6;fill-opacity:1;fill-rule:nonzero;stroke:none"
         id="path60" /><path
         d="M 703.563,186.918 C 701.691,181.742 667.59,122.895 442.98,122.895 H 260.578 C 30.1992,121.125 4.38672,91.1406 -0.00390625,87.9453 V 0 C 4.38672,3.19922 30.1992,33.1836 260.578,34.9492 H 442.98 c 224.61,0 258.711,58.8477 260.583,64.0196 v 87.9492"
         style="fill:#009ca6;fill-opacity:1;fill-rule:nonzero;stroke:none"
         id="path62" /><path
         d="M 609.051,632.273 V 342.422 c 77.484,17.816 93.258,45.281 94.508,48.742 v 241.109 h -94.508"
         style="fill:#009ca6;fill-opacity:1;fill-rule:nonzero;stroke:none"
         id="path64" /></g></g></svg>
